#!OML:ASF E:\Style4\Style4.ASF
:FULLY-SPECIFIED
:DEGREES
2336
root 0.118498 17.6941 -0.868781 0.641134 -2.1197 3.17478
lowerback 5.75183 4.89557 -1.39385
upperback 2.76983 6.41639 -4.73153
thorax 0.0457309 3.23895 -4.44987
lowerneck 2.33925 -7.49844 -7.78553
upperneck 1.73254 -10.364 11.2018
head 1.12933 -5.21691 4.49156
rclavicle -1.09332e-014 1.03368e-014
rhumerus 37.7458 -8.85322 -12.3282
rradius 109.042
rwrist -41.6393
rhand -17.9487 29.0215
rfingers 7.12502
rthumb 8.31983 -0.794613
lclavicle -1.09332e-014 1.03368e-014
lhumerus -48.5687 -39.925 92.4596
lradius 102.19
lwrist 20.8257
lhand -13.6537 23.667
lfingers 7.12502
lthumb 12.463 53.2754
rfemur -13.7728 3.35049 14.7647
rtibia 34.9475
rfoot -20.3996 -13.1296
rtoes -12.8728
lfemur -10.8075 0.0869628 -22.7295
ltibia 30.8531
lfoot -20.6529 8.54372
ltoes -12.9364
2337
root 0.11977 17.6867 -0.86295 0.590634 -2.10149 3.11589
lowerback 5.76498 4.89281 -1.34044
upperback 2.80901 6.41696 -4.72842
thorax 0.0845448 3.24049 -4.47512
lowerneck 2.27621 -7.49575 -7.90073
upperneck 1.81755 -10.3695 11.3278
head 1.17767 -5.21705 4.54234
rclavicle 1.17283e-014 3.02153e-014
rhumerus 37.5333 -9.1651 -12.3827
rradius 109.684
rwrist -41.6821
rhand -18.1058 29.0609
rfingers 7.12502
rthumb 8.16822 -0.76126
lclavicle 1.17283e-014 3.02153e-014
lhumerus -48.462 -40.0142 92.4127
lradius 102.18
lwrist 20.7117
lhand -13.717 23.8032
lfingers 7.12502
lthumb 12.4019 53.4153
rfemur -13.7893 3.27324 14.8271
rtibia 35.1326
rfoot -20.599 -13.0062
rtoes -12.641
lfemur -10.877 0.101955 -22.678
ltibia 31.1137
lfoot -20.7171 8.61981
ltoes -13.4853
2338
root 0.121206 17.6775 -0.855152 0.47257 -2.09731 3.05647
lowerback 5.82498 4.87507 -1.28855
upperback 2.85091 6.39542 -4.71689
thorax 0.0975443 3.23067 -4.49426
lowerneck 2.27198 -7.47154 -7.98154
upperneck 1.90344 -10.3464 11.3799
head 1.20814 -5.20457 4.56932
rclavicle -4.29375e-014 1.98785e-014
rhumerus 37.4761 -9.39201 -12.6433
rradius 110.288
rwrist -41.5894
rhand -18.1292 29.1701
rfingers 7.12502
rthumb 8.14561 -0.652926
lclavicle -4.29375e-014 1.98785e-014
lhumerus -48.4161 -39.989 92.3894
lradius 102.154
lwrist 20.486
lhand -13.8417 23.9063
lfingers 7.12502
lthumb 12.2817 53.5256
rfemur -13.7118 3.24707 14.8931
rtibia 35.3153
rfoot -20.7765 -12.9632
rtoes -12.8145
lfemur -10.8421 0.144445 -22.6214
ltibia 31.3493
lfoot -20.8465 8.6418
ltoes -13.9454
2339
root 0.123277 17.667 -0.845741 0.370101 -2.12744 3.14358
lowerback 5.85361 4.87268 -1.39974
upperback 2.87298 6.3858 -4.74799
thorax 0.0954589 3.22486 -4.4664
lowerneck 2.30885 -7.43364 -7.98004
upperneck 1.97484 -10.3018 11.348
head 1.21683 -5.18244 4.56127
rclavicle 2.20651e-014 1.11319e-014
rhumerus 37.4522 -9.56415 -12.9513
rradius 110.941
rwrist -41.4226
rhand -18.1856 29.146
rfingers 7.12502
rthumb 8.0912 -0.679084
lclavicle 2.20651e-014 1.11319e-014
lhumerus -48.4101 -39.9166 92.366
lradius 102.129
lwrist 20.3667
lhand -13.883 23.8873
lfingers 7.12502
lthumb 12.2419 53.509
rfemur -13.6718 3.24573 14.7881
rtibia 35.5179
rfoot -20.8787 -12.9466
rtoes -12.5492
lfemur -10.8046 0.204944 -22.7246
ltibia 31.5621
lfoot -20.9534 8.62071
ltoes -13.9863
2340
root 0.124431 17.6577 -0.838867 0.312595 -2.13341 3.23123
lowerback 5.85793 4.8714 -1.53819
upperback 2.89612 6.37733 -4.76775
thorax 0.1037 3.21914 -4.4094
lowerneck 2.2687 -7.40002 -7.98107
upperneck 2.07257 -10.2608 11.3216
head 1.24664 -5.1595 4.55121
rclavicle 4.13472e-014 -2.46493e-014
rhumerus 37.3349 -9.80858 -13.0858
rradius 111.574
rwrist -41.3884
rhand -18.441 29.0532
rfingers 7.12502
rthumb 7.84468 -0.7813
lclavicle 4.13472e-014 -2.46493e-014
lhumerus -48.3537 -39.8434 92.3242
lradius 102.11
lwrist 20.3762
lhand -13.8334 23.8693
lfingers 7.12502
lthumb 12.2897 53.4882
rfemur -13.6986 3.15859 14.6837
rtibia 35.7326
rfoot -20.9081 -12.9552
rtoes -12.7343
lfemur -10.8103 0.267968 -22.8232
ltibia 31.7398
lfoot -21.0612 8.53641
ltoes -13.8937
2341
root 0.125783 17.6483 -0.832875 0.300425 -2.12803 3.20409
lowerback 5.80687 4.85505 -1.55591
upperback 2.93102 6.35879 -4.75711
thorax 0.163653 3.21002 -4.38074
lowerneck 2.18073 -7.37179 -7.98656
upperneck 2.15194 -10.2228 11.2802
head 1.27865 -5.13696 4.53558
rclavicle 3.47873e-014 3.97569e-015
rhumerus 37.17 -10.1028 -13.1691
rradius 112.139
rwrist -41.464
rhand -18.3577 29.0953
rfingers 7.12502
rthumb 7.9251 -0.736184
lclavicle 3.47873e-014 3.97569e-015
lhumerus -48.2988 -39.7521 92.2935
lradius 102.135
lwrist 20.3385
lhand -13.8469 24.0068
lfingers 7.12502
lthumb 12.2768 53.6264
rfemur -13.7815 3.09657 14.7048
rtibia 35.9643
rfoot -21.0315 -12.9228
rtoes -12.7796
lfemur -10.8514 0.28316 -22.795
ltibia 31.8877
lfoot -21.2228 8.4533
ltoes -13.4926
2342
root 0.128063 17.6399 -0.825254 0.285812 -2.11261 3.23489
lowerback 5.75523 4.83965 -1.62691
upperback 2.96092 6.3385 -4.75939
thorax 0.21443 3.1993 -4.33634
lowerneck 2.17024 -7.33597 -8.00345
upperneck 2.13893 -10.1719 11.2372
head 1.27018 -5.1118 4.52694
rclavicle 7.2954e-014 -3.97569e-014
rhumerus 37.0151 -10.3703 -13.2574
rradius 112.67
rwrist -41.5722
rhand -18.0659 29.2878
rfingers 7.12502
rthumb 8.20677 -0.53286
lclavicle 7.2954e-014 -3.97569e-014
lhumerus -48.2924 -39.6632 92.2891
lradius 102.166
lwrist 20.2799
lhand -13.8527 24.1419
lfingers 7.12502
lthumb 12.2711 53.7619
rfemur -13.8495 3.0108 14.6557
rtibia 36.1882
rfoot -21.1779 -12.8894
rtoes -12.973
lfemur -10.8744 0.269842 -22.8256
ltibia 32.0327
lfoot -21.4251 8.25023
ltoes -12.756
2343
root 0.129832 17.6312 -0.818484 0.221398 -2.0809 3.3224
lowerback 5.78008 4.82928 -1.71574
upperback 3.01094 6.32129 -4.80175
thorax 0.246817 3.19046 -4.33017
lowerneck 2.03713 -7.30618 -8.09876
upperneck 2.2493 -10.1371 11.3224
head 1.33007 -5.08941 4.56067
rclavicle -1.74931e-014 1.98785e-014
rhumerus 36.8382 -10.625 -13.3509
rradius 113.221
rwrist -41.5425
rhand -18.1542 29.3931
rfingers 7.12502
rthumb 8.12152 -0.430786
lclavicle -1.74931e-014 1.98785e-014
lhumerus -48.2413 -39.669 92.2359
lradius 102.176
lwrist 20.2598
lhand -13.8855 24.1591
lfingers 7.12502
lthumb 12.2395 53.781
rfemur -13.8599 2.90652 14.5491
rtibia 36.3923
rfoot -21.2905 -12.8881
rtoes -13.1197
lfemur -10.8672 0.276953 -22.9222
ltibia 32.193
lfoot -21.5218 8.16929
ltoes -12.6155
2344
root 0.129991 17.6233 -0.814558 0.149367 -2.02157 3.35011
lowerback 5.87005 4.82593 -1.73521
upperback 3.02064 6.31174 -4.83708
thorax 0.208585 3.1858 -4.36384
lowerneck 1.99064 -7.2937 -8.20027
upperneck 2.38337 -10.134 11.4521
head 1.38841 -5.08475 4.61095
rclavicle -1.90833e-014 -2.78299e-014
rhumerus 36.6324 -10.8055 -13.4455
rradius 113.734
rwrist -41.3874
rhand -18.4308 29.3849
rfingers 7.12502
rthumb 7.8545 -0.449223
lclavicle -1.90833e-014 -2.78299e-014
lhumerus -48.2428 -39.7868 92.2129
lradius 102.187
lwrist 20.2787
lhand -13.9421 24.1445
lfingers 7.12502
lthumb 12.185 53.7696
rfemur -13.8472 2.86241 14.5258
rtibia 36.567
rfoot -21.4063 -12.8964
rtoes -13.0444
lfemur -10.8781 0.243007 -22.9547
ltibia 32.3771
lfoot -21.5569 8.20422
ltoes -12.9063
2345
root 0.130238 17.6158 -0.81089 0.0807885 -2.00389 3.31895
lowerback 5.95211 4.81548 -1.73038
upperback 3.00824 6.29314 -4.83661
thorax 0.149622 3.17614 -4.37377
lowerneck 2.08092 -7.24081 -8.28812
upperneck 2.38552 -10.0746 11.6001
head 1.38019 -5.05784 4.67525
rclavicle 5.04913e-014 -4.69132e-014
rhumerus 36.4841 -10.9006 -13.5562
rradius 114.227
rwrist -41.2555
rhand -18.9261 30.1362
rfingers 7.12502
rthumb 7.37652 0.284762
lclavicle 5.04913e-014 -4.69132e-014
lhumerus -48.2489 -39.8789 92.2149
lradius 102.131
lwrist 20.3145
lhand -13.9717 24.0195
lfingers 7.12502
lthumb 12.1564 53.6463
rfemur -13.8333 2.83545 14.5659
rtibia 36.7198
rfoot -21.4678 -12.9381
rtoes -13.2009
lfemur -10.9059 0.239989 -22.9229
ltibia 32.5834
lfoot -21.6557 8.24562
ltoes -13.2363
2346
root 0.129499 17.6084 -0.806505 0.0135209 -2.03655 3.17506
lowerback 6.02713 4.82792 -1.59542
upperback 2.99879 6.31295 -4.82623
thorax 0.112951 3.18763 -4.44614
lowerneck 2.15988 -7.20931 -8.39259
upperneck 2.39442 -10.0472 11.8309
head 1.38398 -5.04629 4.76538
rclavicle -2.42517e-014 2.54444e-014
rhumerus 36.2339 -11.0237 -13.6115
rradius 114.775
rwrist -41.2072
rhand -19.6252 31.0455
rfingers 7.12502
rthumb 6.70166 1.17158
lclavicle -2.42517e-014 2.54444e-014
lhumerus -48.2378 -40.0252 92.1771
lradius 102.103
lwrist 20.278
lhand -13.8821 24.133
lfingers 7.12502
lthumb 12.2428 53.7547
rfemur -13.8189 2.84491 14.7387
rtibia 36.8498
rfoot -21.522 -12.9537
rtoes -13.2921
lfemur -10.9282 0.291152 -22.7542
ltibia 32.7945
lfoot -21.8789 8.28597
ltoes -13.7256
2347
root 0.132046 17.6005 -0.801358 -0.0609905 -2.07256 3.09101
lowerback 6.07334 4.83911 -1.49843
upperback 3.01236 6.33176 -4.82665
thorax 0.113268 3.19859 -4.5047
lowerneck 2.18314 -7.20643 -8.46009
upperneck 2.45005 -10.0546 11.9514
head 1.40668 -5.04987 4.81197
rclavicle 3.37934e-014 -3.26007e-014
rhumerus 35.9722 -11.1927 -13.6558
rradius 115.362
rwrist -41.292
rhand -19.8385 31.2143
rfingers 7.12502
rthumb 6.49572 1.33396
lclavicle 3.37934e-014 -3.26007e-014
lhumerus -48.2595 -40.0957 92.1685
lradius 102.086
lwrist 20.2108
lhand -13.7746 24.1743
lfingers 7.12502
lthumb 12.3464 53.7898
rfemur -13.7929 2.85549 14.8267
rtibia 36.9778
rfoot -21.6658 -12.8358
rtoes -13.2129
lfemur -10.9221 0.343459 -22.6655
ltibia 32.9897
lfoot -22.0141 8.24492
ltoes -13.8485
2348
root 0.135419 17.5937 -0.793042 -0.117677 -2.12703 3.15189
lowerback 6.03872 4.85525 -1.56204
upperback 3.0525 6.3534 -4.85888
thorax 0.172426 3.20962 -4.49853
lowerneck 2.15155 -7.19169 -8.41962
upperneck 2.48003 -10.033 11.9064
head 1.41406 -5.03754 4.79094
rclavicle -1.59028e-014 3.65764e-014
rhumerus 35.78 -11.4203 -13.7474
rradius 115.938
rwrist -41.3751
rhand -19.7619 31.0602
rfingers 7.12502
rthumb 6.56965 1.18208
lclavicle -1.59028e-014 3.65764e-014
lhumerus -48.1856 -40.1459 92.1046
lradius 102.102
lwrist 20.2649
lhand -13.8388 24.1801
lfingers 7.12502
lthumb 12.2845 53.7992
rfemur -13.7868 2.88166 14.7436
rtibia 37.1136
rfoot -21.8227 -12.723
rtoes -13.0324
lfemur -10.9107 0.43019 -22.7428
ltibia 33.1655
lfoot -22.0495 8.06917
ltoes -13.0769
